<?xml version="1.0" encoding="UTF-8"?>
<svg id="_图层_1" data-name="图层 1" xmlns="http://www.w3.org/2000/svg" viewBox="0 0 299.95 99.86">
  <defs>
    <style>
      .cls-1 {
        letter-spacing: 0em;
      }

      .cls-2, .cls-3 {
        fill: #fff;
      }

      .cls-4 {
        fill: #8cc63f;
      }

      .cls-5 {
        letter-spacing: -.02em;
      }

      .cls-6 {
        fill: #c1272d;
      }

      .cls-7 {
        letter-spacing: 0em;
      }

      .cls-8 {
        letter-spacing: 0em;
      }

      .cls-9 {
        letter-spacing: 0em;
      }

      .cls-10 {
        letter-spacing: 0em;
      }

      .cls-11 {
        letter-spacing: 0em;
      }

      .cls-12 {
        fill: #2e3192;
      }

      .cls-13 {
        letter-spacing: -.01em;
      }

      .cls-14 {
        fill: #f7931e;
      }

      .cls-15 {
        letter-spacing: 0em;
      }

      .cls-3 {
        font-family: JiangChengYuanTi-500W, JiangChengYuanTi;
        font-size: 18.47px;
      }

      .cls-16 {
        fill: #22b573;
      }

      .cls-17 {
        letter-spacing: 0em;
      }

      .cls-18 {
        fill: #54b4d1;
      }

      .cls-19 {
        letter-spacing: 0em;
      }

      .cls-20 {
        letter-spacing: 0em;
      }

      .cls-21 {
        letter-spacing: 0em;
      }

      .cls-22 {
        letter-spacing: -.07em;
      }

      .cls-23 {
        letter-spacing: 0em;
      }

      .cls-24 {
        letter-spacing: 0em;
      }
    </style>
  </defs>
  <g>
    <polygon class="cls-14" points="72.32 47.03 72.32 98.15 62.16 94.61 62.16 44.17 72.32 47.03"/>
    <polygon class="cls-18" points="57.16 57.46 57.16 88.73 48.66 83.82 48.66 52.55 57.16 57.46"/>
    <polygon class="cls-4" points="57.16 8.69 57.16 55.66 48.66 52.36 48.66 6 57.16 8.69"/>
    <polygon class="cls-6" points="33.7 34.7 33.7 99.05 45.86 97.89 45.86 27.22 33.7 34.7"/>
    <polygon class="cls-12" points="22.83 52.24 22.83 90.84 16.41 90.84 16.41 71.28 16.41 55.35 18.81 54.19 18.82 54.18 22.83 52.24"/>
    <path class="cls-16" d="m19.32,36.13v15.62l-3.42,1.59c-.27.14-.44.42-.43.72v21.76l-4.65,2.22v-39.06l8.5-2.85Z"/>
    <path d="m74.96,67.42v31.65c.02.42-.31.77-.74.79h0s-61.21,0-61.21,0H.74c-.42-.01-.75-.36-.74-.77,0,0,0,0,0-.01v-22.16c0-.3.17-.59.44-.72l5.69-2.67v-40.41c-.01-.34.2-.64.52-.75l9.98-3.23h.52l11.19,5.8v-10.74c-.14-9.9,5.53-18.99,14.55-23.3l1.89-.84c.21-.09.44-.09.65,0l9.98,4.67c.28.13.45.42.44.72v24.14l1.09-.79c.87-.62,1.14-1.04,2.19-.51,1.97.98,3.95,1.95,6.01,2.93,1.81.85,3.61,1.69,5.42,2.55.27.14.44.41.44.71v30.16l3.58,2.07c.24.15.38.42.37.7Zm-1.48,30.86v-30.4l-2.49-1.45v31.84h2.49Zm-3.95,0v-23.27l-10.16-5.86v29.13h10.16Zm0-25.07v-7.63l-10.16-5.86v7.63l10.16,5.86Zm0-9.41v-28.8l-10.16-4.76v27.68l10.16,5.87Zm-11.64,34.48v-39.41l-2.03-1.16v40.57h2.03Zm0-68.25l-2.03,1.47v24.41l2.03,1.18m-3.51,41.07v-8.24l-8.5-4.88v13.15l8.5-.03Zm0-10.04v-31.25l-8.5-4.88v31.25l8.5,4.88Zm0-33.06V5.91l-8.52-3.98v48.21l8.52,4.92Zm-10,42.84v-22.78l-14.53-8.38v31.15h14.53Zm0-24.56v-22.25l-14.53-8.39v22.24l14.53,8.4Zm0-24.05V1.88l-.9.43c-8.5,4.05-13.84,12.63-13.65,21.96v16.67l14.55,8.35Zm-16.03,48.99v-55.66l-4.04,1.89v53.79l4.04-.03Zm0-57.41v-4.13l-10.75-5.56v14.72l10.75-5.04Zm-5.52,57.03v-52.73l-5.68,2.65h0l-3.4,1.59v48.47l9.07.02Zm-6.71-51.3v-15.62l-8.5,2.78v39.06l4.68-2.15v-21.76c0-.3.16-.58.43-.71l3.39-1.6Zm-3.82,51.3v-25.5l-4.65,2.18v23.33h4.65Zm-6.13.37v-23.01l-4.65,2.18v20.83h4.65Z"/>
  </g>
  <text class="cls-3" transform="translate(78.69 89.69)"><tspan class="cls-8" x="0" y="0">ww</tspan><tspan class="cls-13" x="32.75" y="0">w</tspan><tspan class="cls-11" x="48.79" y="0">.</tspan><tspan class="cls-21" x="52.48" y="0">c</tspan><tspan class="cls-19" x="62.65" y="0">b</tspan><tspan class="cls-23" x="74.6" y="0">i</tspan><tspan class="cls-1" x="79.68" y="0">m</tspan><tspan class="cls-23" x="97.48" y="0">h</tspan><tspan class="cls-10" x="109.34" y="0">u</tspan><tspan class="cls-9" x="121.23" y="0">a</tspan><tspan class="cls-24" x="132.21" y="0">n</tspan><tspan class="cls-17" x="144.01" y="0">g</tspan><tspan class="cls-20" x="155.69" y="0">s</tspan><tspan class="cls-23" x="165.51" y="0">i</tspan><tspan class="cls-22" x="170.59" y="0">r</tspan><tspan class="cls-7" x="177.67" y="0">.</tspan><tspan class="cls-5" x="181.36" y="0">c</tspan><tspan class="cls-15" x="191.38" y="0">o</tspan><tspan x="203.49" y="0">m</tspan></text>
  <g>
    <path class="cls-2" d="m95.66,38.28c0,.45,0,.84-.06,1.28h7.63v5.57h-8.08c-.28,1.73-.61,3.34-1,4.9h2.79c2.67,5.46,4.96,11.64,7.02,17.33h-6.24c-1.56-4.12-3.23-8.63-5.01-13.04-2.4,5.85-6.35,10.92-12.2,16.21l-2.56-7.13c5.68-5.4,9.19-9.97,10.47-18.27h-9.81l-.56-5.57h10.92c.06-.45.06-.84.06-1.28l.22-8.52h-2.45c-.72,2.28-1.62,4.57-2.62,6.69h-6.3c2.4-5.29,4.23-11.31,5.35-16.99h6.3c-.33,1.56-.72,3.12-1.11,4.74h14.21v5.57h-6.8l-.17,8.52Zm9.53,25.74V28.53c0-2.67,1.78-4.46,4.46-4.46h12.59c2.67,0,4.46,1.78,4.46,4.46v35.49c0,2.67-1.78,4.46-4.46,4.46h-12.59c-2.67,0-4.46-1.78-4.46-4.46Zm14.93-2.17v-31.14c0-.5-.33-.84-.84-.84h-6.69c-.5,0-.84.33-.84.84v31.14c0,.5.28.84.84.84h6.69c.5,0,.84-.33.84-.84Z"/>
    <path class="cls-2" d="m147.86,54.21v7.19l-10.19,6.24-1.06-6.74,1.17-.67c.56-3.06.67-5.91.67-9.08v-11.59c0-.5-.33-.84-.84-.84h-3.29l-.56-6.07h6.96c2.51,0,3.9,1.39,3.9,3.9v14.54c0,2.17-.17,3.9-.5,5.4l3.73-2.28Zm-11.59-28.64v-6.02l10.81,3.79v6.02l-10.81-3.79Zm41.06,34.93c1.11,2.62,2.67,3.68,7.13,2.23l-1.11,6.46c-6.57,1.5-9.14-.45-11.37-5.51l-.06-.06c-2,2.17-4.29,4.07-7.02,5.85l-2.67-6.3c3.01-1.56,5.57-3.73,7.69-6.46-1.45-6.35-2.73-15.49-3.57-25.57h-9.36c-.72,0-1.11.39-1.11,1.11v4.4h5.4c2.9,0,3.34,1.56,3.79,4.46.72,5.01.83,9.97.11,14.99-.5,3.4-1.78,5.29-4.01,5.68-1.95.33-3.57.17-4.96-.17l-.95-3.57c-.56,3.84-1.62,7.24-3.57,11.53h-7.02c4.68-9.03,4.9-14.26,4.9-25.29v-14.48c0-2.9,1.56-4.46,4.46-4.46h11.81l-.45-5.91h6.18l.45,5.91h4.68l-1.56-5.07h5.74l2.01,6.57c.72,2.45-.28,4.29-3.4,4.29h-7.02c.45,6.07,1.17,11.98,1.95,16.88,1.34-3.79,2.28-8.13,2.79-13.15h5.96c-1.34,9.58-3.34,16.88-6.8,22.79.33,1.17.67,2.12.95,2.84Zm-21.45-16.21c0,4.9-.06,8.64-.39,11.98.83.11,1.67.17,2.45.06,1.06-.11,1.67-.78,1.78-1.78.5-3.73.45-7.46-.06-11.2-.11-.72-.39-1.11-1.11-1.11h-2.67v2.06Z"/>
    <path class="cls-2" d="m231.04,54.99c2.4,2.84,5.52,5.29,9.64,7.86l-1.73,7.24c-4.96-3.01-8.8-6.13-11.81-9.75-3.23,3.62-7.3,6.85-12.31,9.75l-1.67-6.8c4.35-2.51,7.74-5.24,10.36-8.3-2.01-3.62-3.45-7.8-4.46-12.81-.84,1-1.78,2.06-2.79,3.06l-1.45-5.91v.5h-5.63c-1.23,1.23-2.56,2.34-4.01,3.4h5.68c1.78,0,2.79,1.17,2.95,2.56.11,1.17-.39,2.56-1.67,3.57l-4.01,3.17c-.11.11-.28.22-.39.33l7.69-.67v5.35l-8.47.67v6.13c0,2.84-2.06,4.85-4.96,5.18-2.67.28-4.9,0-7.35-.5l-1.45-5.51c2.17.56,3.79.83,5.68.61,1-.11,1.62-.67,1.62-1.67v-3.68l-10.98.89-1-5.12,11.98-1.06v-.06c0-1.39.89-2.67,1.95-3.51l2.17-1.67h-7.46v-.17c-2.28,1.11-4.74,2.23-7.41,3.29l-1.45-5.68c4.85-1.67,8.86-3.57,12.26-5.85h-10.58l-.56-5.35h9.14v-4.12h-7.35l-.56-5.12h7.91v-5.79h6.35v5.79h5.24v4.35c.95-1.67,1.78-3.51,2.45-5.52h5.91c-1.23,4.01-2.84,7.41-4.85,10.42h1.17v3.06c3.73-4.68,5.85-11.09,6.29-18.11h6.29c-.11,2.79-.45,5.35-.95,7.74h13.32v5.68h-2.62c-.56,8.86-2.45,16.04-6.13,22.12Zm-26.13-24.62v4.12h1.78c1.11-1.28,2.12-2.67,3.01-4.12h-4.79Zm19.78,2.51c-.61,1.62-1.39,3.12-2.28,4.62h1.89c.67,4.74,1.62,8.47,3.06,11.64,2.34-4.68,3.4-10.03,3.62-16.27h-6.29Z"/>
    <path class="cls-2" d="m295.44,22.46v5.91h-28.52c-1.84,1.89-4.23,3.68-6.74,5.18h21.62l-3.96-4.07h7.97l5.96,5.74c1.45,1.39.28,3.79-1.73,3.79h-41.28l-.56-5.46h2.23c2.56-1.34,5.35-3.23,7.52-5.18h-12.03l-.56-5.91h21.67v-3.01h6.68v3.01h21.73Zm-38.72,39.5v7.58h-6.57v-24.18c0-2.9,1.56-4.46,4.46-4.46h31.7c2.9,0,4.46,1.56,4.46,4.46v18.27c0,3.12-2.17,5.46-5.4,5.74-3.68.28-7.13.11-10.47-.39l-1.28-5.29c3.12.5,5.74.78,8.8.5,1.11-.11,1.78-.72,1.78-1.78v-.45h-27.46Zm27.46-14.32c0-.5-.33-.84-.84-.84h-25.79c-.5,0-.84.33-.84.84v1.5h27.46v-1.5Zm0,6.74h-27.46v2.34h27.46v-2.34Z"/>
  </g>
</svg>